<?xml version="1.0" encoding="UTF-8" standalone="no"?>
<!DOCTYPE svg PUBLIC "-//W3C//DTD SVG 20010904//EN"
              "http://www.w3.org/TR/2001/REC-SVG-20010904/DTD/svg10.dtd">

<svg xmlns="http://www.w3.org/2000/svg"
     width="1.66667in" height="1.66667in"
     viewBox="0 0 500 500">
  <path id="Selection"
        fill="none" stroke="black" stroke-width="1"
        d="M 478.85,350.00
           C 449.24,418.93 387.50,471.97 315.00,491.12
             301.34,494.72 278.94,498.98 265.00,499.00
             265.00,499.00 250.00,499.92 250.00,499.92
             250.00,499.92 238.00,499.00 238.00,499.00
             218.33,498.91 196.79,494.81 178.00,489.02
             109.53,467.96 53.36,420.44 23.31,355.00
             9.89,325.78 1.37,293.23 1.00,261.00
             1.00,261.00 0.08,250.00 0.08,250.00
             0.08,250.00 1.00,239.00 1.00,239.00
             1.83,167.51 40.37,97.00 96.00,53.21
             135.03,22.49 190.00,1.00 240.00,1.00
             240.00,1.00 205.00,84.00 205.00,84.00
             205.00,84.00 280.00,72.00 280.00,72.00
             280.00,72.00 246.00,140.00 246.00,140.00
             246.00,140.00 290.00,121.00 290.00,121.00
             290.00,121.00 274.00,144.00 274.00,144.00
             274.00,144.00 298.00,140.00 298.00,140.00
             298.00,140.00 257.00,256.00 257.00,256.00
             257.00,256.00 302.00,234.00 302.00,234.00
             302.00,234.00 309.00,248.00 309.00,248.00
             309.00,248.00 364.00,224.00 364.00,224.00
             364.00,224.00 377.00,263.00 377.00,263.00
             377.00,263.00 422.00,252.00 422.00,252.00
             422.00,252.00 408.00,299.00 408.00,299.00
             408.00,299.00 436.00,281.80 436.00,281.80
             438.52,280.27 444.25,276.09 447.00,276.24
             452.86,276.56 465.03,293.21 471.00,294.36
             473.67,294.87 477.62,292.43 480.00,291.25
             484.41,289.06 492.45,285.30 497.00,284.00
             496.14,302.62 486.28,332.70 478.85,350.00 Z" />
</svg>
