<?xml version="1.0" encoding="UTF-8" standalone="no"?>
<!DOCTYPE svg PUBLIC "-//W3C//DTD SVG 20010904//EN"
              "http://www.w3.org/TR/2001/REC-SVG-20010904/DTD/svg10.dtd">

<svg xmlns="http://www.w3.org/2000/svg"
     width="1.66667in" height="1.66667in"
     viewBox="0 0 500 500">
 <path id="p2"
       fill="none" stroke="black" stroke-width="1"
        d="M 230.36,19.45M 232.36,18.73
           C 232.36,18.73 236.18,20.55 236.18,20.55
             236.18,20.55 247.45,20.18 247.45,20.18
             247.45,20.18 254.91,27.27 254.91,27.27
             254.91,27.27 276.73,27.45 276.73,27.45
             276.73,27.45 288.00,18.00 288.00,18.00
             288.00,18.00 291.82,3.82 291.82,3.82
             291.82,3.82 276.91,2.00 276.91,2.00
             276.91,2.00 258.55,0.36 258.55,0.36
             258.55,0.36 240.55,0.36 240.55,0.36
             240.55,0.36 232.36,18.73 232.36,18.73 Z"
  />
  <path id="p3" class="vanishing"
       fill="none" stroke="black" stroke-width="1"
       d="M 229.45,60.18
           C 229.45,60.18 214.73,60.18 214.73,60.18
             214.73,60.18 205.27,82.91 205.27,82.91
             205.27,82.91 268.55,72.73 268.55,72.73
             268.55,72.73 254.18,64.36 254.18,64.36
             254.18,64.36 246.73,60.00 246.73,60.00
             246.73,60.00 234.36,62.00 234.36,62.00
             234.36,62.00 229.45,60.18 229.45,60.18 Z" />
 <path id="p4" class="vanishing"
       fill="none" stroke="black" stroke-width="1"
       d="M 272.18,52.00
           C 272.18,52.00 250.18,59.27 250.18,59.27
             250.18,59.27 272.18,72.73 272.18,72.73
             272.18,72.73 279.27,70.55 279.27,70.55
             279.27,70.55 304.00,57.45 304.00,57.45
             304.00,57.45 298.91,50.00 298.91,50.00
             298.91,50.00 295.64,28.91 295.64,28.91
             295.64,28.91 306.91,20.55 306.91,20.55
             306.91,20.55 287.64,21.45 287.64,21.45
             287.64,21.45 280.18,26.18 280.18,26.18
             280.18,26.18 272.18,52.00 272.18,52.00 Z" />
  <path id="p5" class="vanishing"
       fill="none" stroke="black" stroke-width="1"
       d="M 322.73,10.91
           C 322.73,10.91 294.36,3.82 294.36,3.82
             294.36,3.82 289.82,18.00 289.82,18.00
             289.82,18.00 306.73,18.55 306.73,18.55
             306.73,18.55 308.55,21.45 308.55,21.45
             308.55,21.45 298.18,30.36 298.18,30.36
             298.18,30.36 299.09,45.27 299.09,45.27
             299.09,45.27 306.00,57.09 306.00,57.09
             306.00,57.09 301.82,66.91 301.82,66.91
             301.82,66.91 316.73,59.45 316.73,59.45
             316.73,59.45 341.64,46.73 341.64,46.73
             341.64,46.73 340.73,35.27 340.73,35.27
             340.73,35.27 346.73,19.45 346.73,19.45
             346.73,19.45 322.73,10.91 322.73,10.91 Z" />
  <path id="p6" class="vanishing"
       fill="none" stroke="black" stroke-width="1"
       d="M 298.18,69.45
           C 298.18,69.45 302.55,60.18 302.55,60.18
             302.55,60.18 280.55,72.00 280.55,72.00
             280.55,72.00 262.36,106.55 262.36,106.55
             262.36,106.55 282.55,106.00 282.55,106.00
             282.55,106.00 314.55,108.73 314.55,108.73
             314.55,108.73 336.73,77.45 336.73,77.45
             336.73,77.45 330.55,55.45 330.55,55.45
             330.55,55.45 313.45,65.09 313.45,65.09
             313.45,65.09 298.18,69.45 298.18,69.45 Z" />
 <path id="p7" class="vanishing"
       fill="none" stroke="black" stroke-width="1"
       d="M 333.82,52.91
           C 333.82,52.91 339.82,77.09 339.82,77.09
             339.82,77.09 366.55,78.18 366.55,78.18
             366.55,78.18 374.36,54.91 374.36,54.91
             374.36,54.91 358.73,47.09 358.73,47.09
             358.73,47.09 344.36,56.73 344.36,56.73
             344.36,56.73 333.82,52.91 333.82,52.91 Z" />
<path id="p8"
       fill="none" stroke="black" stroke-width="1"
       d="M 336.18,51.09
           C 336.18,51.09 344.73,53.82 344.73,53.82
             344.73,53.82 358.36,43.45 358.36,43.45
             358.36,43.45 362.73,47.09 362.73,47.09
             362.73,47.09 367.27,45.82 367.27,45.82
             367.27,45.82 369.45,49.45 369.45,49.45
             369.45,49.45 375.64,50.18 375.64,50.18
             375.64,50.18 388.55,40.73 388.55,40.73
             388.55,40.73 349.45,20.36 349.45,20.36
             349.45,20.36 343.45,35.64 343.45,35.64
             343.45,35.64 343.82,47.27 343.82,47.27
             343.82,47.27 336.18,51.09 336.18,51.09 Z" />
<path id="p9"
       fill="none" stroke="black" stroke-width="1"
       d="M 405.09,53.45
           C 405.09,53.45 389.27,42.91 389.27,42.91
             389.27,42.91 378.36,51.82 378.36,51.82
             378.36,51.82 402.18,64.73 402.18,64.73
             402.18,64.73 431.64,94.55 431.64,94.55
             431.64,94.55 425.64,117.27 425.64,117.27
             425.64,117.27 421.45,136.36 421.45,136.36
             421.45,136.36 441.27,125.45 441.27,125.45
             441.27,125.45 460.18,137.82 460.18,137.82
             460.18,137.82 462.36,124.00 462.36,124.00
             462.36,124.00 460.73,116.00 460.73,116.00
             460.73,116.00 446.91,96.18 446.91,96.18
             446.91,96.18 430.36,76.55 430.36,76.55
             430.36,76.55 405.09,53.45 405.09,53.45 Z" />

<path id="p10"
       fill="none" stroke="black" stroke-width="1" d="M 231.82,19.64
           C 231.82,19.64 215.55,58.64 215.55,58.64
             215.55,58.64 243.27,59.82 243.27,59.82
             243.27,59.82 271.64,49.64 271.64,49.64
             271.64,49.64 278.36,28.91 278.36,28.91
             278.36,28.91 254.55,28.73 254.55,28.73
             254.55,28.73 246.91,21.27 246.91,21.27
             246.91,21.27 238.18,20.91 238.18,20.91
             238.18,20.91 231.82,19.64 231.82,19.64 Z" />
<path id="p11"
       fill="none" stroke="black" stroke-width="1" d="M 386.55,58.55
           C 386.55,58.55 377.45,54.73 377.45,54.73
             377.45,54.73 369.09,78.73 369.09,78.73
             369.09,78.73 380.91,75.64 380.91,75.64
             380.91,75.64 378.36,87.09 378.36,87.09
             378.36,87.09 401.82,77.09 401.82,77.09
             401.82,77.09 411.09,89.64 411.09,89.64
             411.09,89.64 410.18,74.55 410.18,74.55
             410.18,74.55 401.27,66.91 401.27,66.91
             401.27,66.91 386.55,58.55 386.55,58.55 Z" />
<path id="p12"
       fill="none" stroke="black" stroke-width="1" d="M 421.82,86.91
           C 421.82,86.91 411.64,76.73 411.64,76.73
             411.64,76.73 413.27,90.91 413.27,90.91
             413.27,90.91 406.55,95.82 406.55,95.82
             406.55,95.82 392.36,118.91 392.36,118.91
             392.36,118.91 405.27,116.91 405.27,116.91
             405.27,116.91 402.36,132.00 402.36,132.00
             402.36,132.00 403.45,148.00 403.45,148.00
             403.45,148.00 418.91,135.82 418.91,135.82
             418.91,135.82 424.00,117.64 424.00,117.64
             424.00,117.64 429.64,94.73 429.64,94.73
             429.64,94.73 421.82,86.91 421.82,86.91 Z" />
<path id="p13"
       fill="none" stroke="black" stroke-width="1" d="M 261.45,109.27
           C 261.45,109.27 246.91,139.09 246.91,139.09
             246.91,139.09 290.91,119.09 290.91,119.09
             290.91,119.09 282.18,132.91 282.18,132.91
             282.18,132.91 308.91,128.18 308.91,128.18
             308.91,128.18 330.36,114.18 330.36,114.18
             330.36,114.18 358.55,96.18 358.55,96.18
             358.55,96.18 370.00,96.73 370.00,96.73
             370.00,96.73 364.55,90.55 364.55,90.55
             364.55,90.55 341.82,88.91 341.82,88.91
             341.82,88.91 325.27,107.45 325.27,107.45
             325.27,107.45 281.82,108.36 281.82,108.36
             281.82,108.36 261.45,109.27 261.45,109.27 Z" />
<path id="p14"
       fill="none" stroke="black" stroke-width="1" d="M 336.55,80.18
           C 336.55,80.18 320.00,104.18 320.00,104.18
             320.00,104.18 324.00,104.55 324.00,104.55
             324.00,104.55 343.27,85.64 343.27,85.64
             343.27,85.64 366.00,87.45 366.00,87.45
             366.00,87.45 372.73,94.55 372.73,94.55
             372.73,94.55 376.73,80.00 376.73,80.00
             376.73,80.00 367.64,80.91 367.64,80.91
             367.64,80.91 336.55,80.18 336.55,80.18 Z" />
<path id="p15"
       fill="none" stroke="black" stroke-width="1" d="M 401.09,79.27
           C 401.09,79.27 394.73,82.73 394.73,82.73
             394.73,82.73 376.91,90.73 376.91,90.73
             376.91,90.73 374.55,105.82 374.55,105.82
             374.55,105.82 383.64,122.91 383.64,122.91
             383.64,122.91 393.82,111.82 393.82,111.82
             393.82,111.82 398.55,96.91 398.55,96.91
             398.55,96.91 408.36,89.64 408.36,89.64
             408.36,89.64 401.09,79.27 401.09,79.27 Z" />


<path id="p16" fill="none" stroke="black" stroke-width="1" d="M 372.55,100.73
           C 372.55,100.73 360.00,99.82 360.00,99.82
             360.00,99.82 336.91,113.82 336.91,113.82
             336.91,113.82 333.64,134.73 333.64,134.73
             333.64,134.73 320.55,156.18 320.55,156.18
             320.55,156.18 343.09,168.73 343.09,168.73
             343.09,168.73 354.18,149.45 354.18,149.45
             354.18,149.45 386.91,152.73 386.91,152.73
             386.91,152.73 372.00,131.64 372.00,131.64
             372.00,131.64 368.00,112.00 368.00,112.00
             368.00,112.00 372.55,100.73 372.55,100.73 Z" />
<path id="p17" fill="none" stroke="black" stroke-width="1" d="M 373.45,109.09
           C 373.45,109.09 370.91,114.73 370.91,114.73
             370.91,114.73 374.91,129.82 374.91,129.82
             374.91,129.82 390.73,150.18 390.73,150.18
             390.73,150.18 392.36,162.18 392.36,162.18
             392.36,162.18 400.18,166.00 400.18,166.00
             400.18,166.00 423.09,165.45 423.09,165.45
             423.09,165.45 424.18,150.91 424.18,150.91
             424.18,150.91 429.82,138.18 429.82,138.18
             429.82,138.18 417.27,139.27 417.27,139.27
             417.27,139.27 406.73,149.45 406.73,149.45
             406.73,149.45 399.82,149.45 399.82,149.45
             399.82,149.45 400.36,122.91 400.36,122.91
             400.36,122.91 389.27,124.18 389.27,124.18
             389.27,124.18 385.64,127.82 385.64,127.82
             385.64,127.82 373.45,109.09 373.45,109.09 Z" />
<path id="p18" fill="none" stroke="black" stroke-width="1" d="M 434.36,134.18
           C 434.36,134.18 442.73,130.91 442.73,130.91
             442.73,130.91 459.82,140.73 459.82,140.73
             459.82,140.73 466.00,125.45 466.00,125.45
             466.00,125.45 474.36,140.73 474.36,140.73
             474.36,140.73 480.55,153.64 480.55,153.64
             480.55,153.64 485.27,166.00 485.27,166.00
             485.27,166.00 494.18,196.55 494.18,196.55
             494.18,196.55 476.00,218.55 476.00,218.55
             476.00,218.55 436.73,205.09 436.73,205.09
             436.73,205.09 448.73,185.82 448.73,185.82
             448.73,185.82 437.09,176.55 437.09,176.55
             437.09,176.55 440.36,164.73 440.36,164.73
             440.36,164.73 445.82,151.64 445.82,151.64
             445.82,151.64 434.36,134.18 434.36,134.18 Z" />
<path id="p19" fill="none" stroke="black" stroke-width="1" d="M 433.82,138.91
           C 433.82,138.91 427.82,150.73 427.82,150.73
             427.82,150.73 428.36,167.45 428.36,167.45
             428.36,167.45 432.55,169.09 432.55,169.09
             432.55,169.09 439.64,157.27 439.64,157.27
             439.64,157.27 441.09,150.91 441.09,150.91
             441.09,150.91 433.82,138.91 433.82,138.91 Z" />
<path id="p20" fill="none" stroke="black" stroke-width="1" d="M 279.82,135.27
           C 279.82,135.27 274.91,143.09 274.91,143.09
             274.91,143.09 297.45,139.82 297.45,139.82
             297.45,139.82 285.82,173.45 285.82,173.45
             285.82,173.45 323.64,168.55 323.64,168.55
             323.64,168.55 318.55,158.55 318.55,158.55
             318.55,158.55 328.18,135.27 328.18,135.27
             328.18,135.27 331.27,118.00 331.27,118.00
             331.27,118.00 310.00,132.36 310.00,132.36
             310.00,132.36 279.82,135.27 279.82,135.27 Z" />
<path id="p21" fill="none" stroke="black" stroke-width="1" d="M 285.09,176.91
           C 285.09,176.91 257.09,254.91 257.09,254.91
             257.09,254.91 332.55,214.36 332.55,214.36
             332.55,214.36 328.36,185.09 328.36,185.09
             328.36,185.09 303.64,185.45 303.64,185.45
             303.64,185.45 295.82,202.73 295.82,202.73
             295.82,202.73 285.09,176.91 285.09,176.91 Z" />
<path id="p22" fill="none" stroke="black" stroke-width="1" d="M 287.82,174.91
           C 287.82,174.91 296.00,194.36 296.00,194.36
             296.00,194.36 301.27,179.27 301.27,179.27
             301.27,179.27 326.73,183.09 326.73,183.09
             326.73,183.09 358.55,181.82 358.55,181.82
             358.55,181.82 377.64,165.82 377.64,165.82
             377.64,165.82 373.45,155.27 373.45,155.27
             373.45,155.27 356.91,153.09 356.91,153.09
             356.91,153.09 347.27,169.27 347.27,169.27
             347.27,169.27 340.00,172.18 340.00,172.18
             340.00,172.18 328.73,164.18 328.73,164.18
             328.73,164.18 328.73,170.00 328.73,170.00
             328.73,170.00 318.36,173.27 318.36,173.27
             318.36,173.27 287.82,174.91 287.82,174.91 Z" />
<path id="p23" fill="none" stroke="black" stroke-width="1" d="M 356.36,187.82
           C 356.36,187.82 331.45,186.00 331.45,186.00
             331.45,186.00 338.36,213.64 338.36,213.64
             338.36,213.64 318.73,226.00 318.73,226.00
             318.73,226.00 302.00,234.00 302.00,234.00
             302.00,234.00 309.64,247.64 309.64,247.64
             309.64,247.64 364.18,222.91 364.18,222.91
             364.18,222.91 386.00,224.36 386.00,224.36
             386.00,224.36 391.09,215.82 391.09,215.82
             391.09,215.82 369.45,207.09 369.45,207.09
             369.45,207.09 382.73,192.00 382.73,192.00
             382.73,192.00 375.82,182.36 375.82,182.36
             375.82,182.36 356.36,187.82 356.36,187.82 Z" />
<path id="p24" fill="none" stroke="black" stroke-width="1" d="M 374.73,172.91
           C 374.73,172.91 381.27,165.27 381.27,165.27
             381.27,165.27 378.00,156.36 378.00,156.36
             378.00,156.36 388.18,155.09 388.18,155.09
             388.18,155.09 390.91,162.36 390.91,162.36
             390.91,162.36 411.45,172.91 411.45,172.91
             411.45,172.91 406.91,183.64 406.91,183.64
             406.91,183.64 404.36,196.00 404.36,196.00
             404.36,196.00 389.64,184.55 389.64,184.55
             389.64,184.55 374.55,178.73 374.55,178.73
             374.55,178.73 374.73,172.91 374.73,172.91 Z" />
<path id="p25" fill="none" stroke="black" stroke-width="1" d="M 382.55,185.27
           C 382.55,185.27 385.82,195.09 385.82,195.09
             385.82,195.09 376.36,205.45 376.36,205.45
             376.36,205.45 398.36,214.36 398.36,214.36
             398.36,214.36 387.45,235.82 387.45,235.82
             387.45,235.82 400.91,226.91 400.91,226.91
             400.91,226.91 423.09,222.91 423.09,222.91
             423.09,222.91 419.82,209.64 419.82,209.64
             419.82,209.64 420.36,194.18 420.36,194.18
             420.36,194.18 398.18,199.45 398.18,199.45
             398.18,199.45 382.55,185.27 382.55,185.27 Z" />
<path id="p26" fill="none" stroke="black" stroke-width="1" d="M 410.00,168.91
           C 410.00,168.91 432.91,173.27 432.91,173.27
             432.91,173.27 437.82,185.82 437.82,185.82
             437.82,185.82 431.45,201.45 431.45,201.45
             431.45,201.45 424.73,211.27 424.73,211.27
             424.73,211.27 422.55,192.55 422.55,192.55
             422.55,192.55 413.27,192.36 413.27,192.36
             413.27,192.36 412.00,186.18 412.00,186.18
             412.00,186.18 414.55,174.55 414.55,174.55
             414.55,174.55 410.00,168.91 410.00,168.91 Z" />
<path id="p27" fill="none" stroke="black" stroke-width="1" d="M 410.00,168.91
           C 410.00,168.91 432.91,173.27 432.91,173.27
             432.91,173.27 437.82,185.82 437.82,185.82
             437.82,185.82 431.45,201.45 431.45,201.45
             431.45,201.45 424.73,211.27 424.73,211.27
             424.73,211.27 422.55,192.55 422.55,192.55
             422.55,192.55 413.27,192.36 413.27,192.36
             413.27,192.36 412.00,186.18 412.00,186.18
             412.00,186.18 414.55,174.55 414.55,174.55
             414.55,174.55 410.00,168.91 410.00,168.91 Z" />
<path id="p28" fill="none" stroke="black" stroke-width="1" d="M 364.55,225.82
           C 364.55,225.82 378.00,262.36 378.00,262.36
             378.00,262.36 389.45,246.91 389.45,246.91
             389.45,246.91 378.91,240.36 378.91,240.36
             378.91,240.36 383.82,230.18 383.82,230.18
             383.82,230.18 364.55,225.82 364.55,225.82 Z" />
<path id="p29" fill="none" stroke="black" stroke-width="1" d="M 381.64,261.09
           C 381.64,261.09 399.09,234.91 399.09,234.91
             399.09,234.91 428.36,232.00 428.36,232.00
             428.36,232.00 431.09,217.82 431.09,217.82
             431.09,217.82 444.36,216.36 444.36,216.36
             444.36,216.36 460.18,226.55 460.18,226.55
             460.18,226.55 458.00,244.00 458.00,244.00
             458.00,244.00 420.18,246.36 420.18,246.36
             420.18,246.36 399.45,257.09 399.45,257.09
             399.45,257.09 381.64,261.09 381.64,261.09 Z" />
<path id="p30" fill="none" stroke="black" stroke-width="1" d="M 406.18,254.91
           C 406.18,254.91 419.82,248.36 419.82,248.36
             419.82,248.36 452.18,248.91 452.18,248.91
             452.18,248.91 451.45,258.73 451.45,258.73
             451.45,258.73 445.45,268.73 445.45,268.73
             445.45,268.73 438.91,279.27 438.91,279.27
             438.91,279.27 407.64,298.18 407.64,298.18
             407.64,298.18 421.45,252.00 421.45,252.00
             421.45,252.00 406.18,254.91 406.18,254.91 Z" />
<path id="p31" fill="none" stroke="black" stroke-width="1" d="M 442.00,277.45
           C 442.00,277.45 455.82,259.27 455.82,259.27
             455.82,259.27 455.27,248.73 455.27,248.73
             455.27,248.73 462.91,246.73 462.91,246.73
             462.91,246.73 465.45,233.27 465.45,233.27
             465.45,233.27 477.45,223.45 477.45,223.45
             477.45,223.45 487.82,214.18 487.82,214.18
             487.82,214.18 494.36,203.09 494.36,203.09
             494.36,203.09 497.27,214.18 497.27,214.18
             497.27,214.18 498.55,227.27 498.55,227.27
             498.55,227.27 499.45,237.09 499.45,237.09
             499.45,237.09 488.73,260.00 488.73,260.00
             488.73,260.00 467.09,284.00 467.09,284.00
             467.09,284.00 458.18,272.36 458.18,272.36
             458.18,272.36 447.64,274.36 447.64,274.36
             447.64,274.36 442.00,277.45 442.00,277.45 Z" />
  <path id="p1"
        fill="none" stroke="black" stroke-width="1"
        d="M 449.09,276.36
           C 449.09,276.36 455.64,282.18 455.64,282.18
             455.64,282.18 470.91,295.45 470.91,295.45
             470.91,295.45 496.91,282.73 496.91,282.73
             496.91,282.73 498.18,272.73 498.18,272.73
             498.18,272.73 499.45,263.09 499.45,263.09
             499.45,263.09 499.09,254.18 499.09,254.18
             499.09,254.18 498.73,242.91 498.73,242.91
             498.73,242.91 490.55,262.00 490.55,262.00
             490.55,262.00 472.18,282.55 472.18,282.55
             472.18,282.55 465.27,285.45 465.27,285.45
             465.27,285.45 457.64,276.00 457.64,276.00
             457.64,276.00 449.09,276.36 449.09,276.36 Z" />
</svg>
